<svg width="61" height="24" viewBox="0 0 61 24" fill="none" xmlns="http://www.w3.org/2000/svg">
<path fill-rule="evenodd" clip-rule="evenodd" d="M35.1689 4.44506C35.9478 4.44511 36.6003 4.57765 37.1257 4.84266C37.651 5.10165 38.0732 5.4276 38.3932 5.81906C38.7194 6.20461 38.9707 6.58452 39.1458 6.95802H39.2901V4.62626H43.1228V18.6417C43.1228 19.8223 42.8326 20.8099 42.2529 21.6051C41.6731 22.4002 40.8701 22.9967 39.8434 23.3943C38.8227 23.7979 37.6478 24 36.3191 24C35.069 24 33.9969 23.8287 33.103 23.4854C32.2152 23.148 31.5087 22.6864 30.9832 22.1021C30.4578 21.5177 30.1157 20.8616 29.9586 20.1327L33.5287 19.6533C33.6374 19.9304 33.8091 20.19 34.0446 20.4309C34.2801 20.6718 34.5915 20.8641 34.9779 21.0087C35.3704 21.1593 35.8478 21.2354 36.4094 21.2354C37.2489 21.2354 37.941 21.03 38.4846 20.6204C39.0339 20.2168 39.3087 19.5393 39.3088 18.5879V16.048H39.1458C38.9768 16.4334 38.723 16.7981 38.3849 17.1414C38.0467 17.4848 37.6115 17.7653 37.08 17.9821C36.5485 18.199 35.914 18.3073 35.1772 18.3073C34.1324 18.3072 33.181 18.0664 32.3234 17.5845C31.4718 17.0966 30.793 16.3522 30.2856 15.3522C29.7843 14.3461 29.533 13.0749 29.533 11.5387C29.533 9.96651 29.7899 8.65313 30.3033 7.59895C30.8166 6.54496 31.499 5.75606 32.3504 5.23198C33.2081 4.70787 34.1481 4.44506 35.1689 4.44506ZM36.4001 7.50887C35.7663 7.50895 35.2319 7.68036 34.7972 8.02347C34.3624 8.36083 34.0324 8.83129 33.809 9.43371C33.5856 10.0361 33.4747 10.7321 33.4747 11.5211C33.4747 12.3222 33.5856 13.0149 33.809 13.5992C34.0385 14.1775 34.3684 14.626 34.7972 14.9453C35.232 15.2584 35.7661 15.4153 36.4001 15.4153C37.0222 15.4153 37.5481 15.2618 37.9769 14.9546C38.4117 14.6414 38.744 14.1959 38.9735 13.6178C39.2091 13.0335 39.3265 12.3343 39.3265 11.5211C39.3265 10.708 39.2123 10.0031 38.9829 9.40679C38.7534 8.80447 38.421 8.33719 37.9863 8.00587C37.5514 7.67453 37.0222 7.50887 36.4001 7.50887Z" fill="#303030"/>
<path fill-rule="evenodd" clip-rule="evenodd" d="M20.6904 4.44506C22.0977 4.44506 23.3124 4.74655 24.3331 5.34898C25.3597 5.94531 26.1506 6.78279 26.7062 7.86091C27.2619 8.93323 27.5398 10.1867 27.5398 11.6205C27.5398 13.0422 27.2619 14.2925 26.7062 15.3708C26.1506 16.4429 25.3597 17.2804 24.3331 17.8827C23.3124 18.4791 22.0977 18.7773 20.6904 18.7773C19.2833 18.7773 18.0661 18.4791 17.0394 17.8827C16.0188 17.2803 15.2303 16.443 14.6746 15.3708C14.119 14.2925 13.8421 13.0422 13.8421 11.6205C13.8421 10.1867 14.119 8.93323 14.6746 7.86091C15.2303 6.78264 16.0188 5.94537 17.0394 5.34898C18.0661 4.74661 19.2833 4.44511 20.6904 4.44506ZM23.8774 12.746C23.1007 12.9948 21.9457 13.1364 20.7112 13.1364C19.4767 13.1364 18.3217 12.9948 17.545 12.746C17.2519 12.6515 16.961 12.9032 17.0124 13.2057C17.2517 14.6165 19.1527 15.5986 20.7112 15.5986C22.2697 15.5986 24.1707 14.6165 24.41 13.2057C24.4588 12.9032 24.1705 12.6515 23.8774 12.746ZM19.0752 8.02347C18.8693 7.7239 18.4297 7.73139 18.2343 8.02347C17.9155 8.49531 17.8434 8.97015 17.8305 9.44199C17.8459 9.91384 17.9156 10.3887 18.2343 10.8605C18.44 11.1606 18.8797 11.1529 19.0752 10.8605C19.394 10.3886 19.4661 9.91393 19.479 9.44199C19.4635 8.97016 19.3939 8.4953 19.0752 8.02347ZM23.1902 8.02347C22.9844 7.72386 22.5448 7.73143 22.3493 8.02347C22.0305 8.49531 21.9584 8.97016 21.9455 9.44199C21.9609 9.91386 22.0306 10.3887 22.3493 10.8605C22.5551 11.1606 22.9947 11.1529 23.1902 10.8605C23.509 10.3886 23.5812 9.91391 23.594 9.44199C23.5786 8.97016 23.509 8.4953 23.1902 8.02347Z" fill="#303030"/>
<path d="M58.1286 4.62626H60.7467V7.51818H58.1286V14.2412C58.1286 14.5965 58.1829 14.8739 58.2916 15.0726C58.4002 15.2651 58.5512 15.4002 58.7442 15.4785C58.9434 15.5568 59.1729 15.5965 59.4325 15.5965C59.6137 15.5965 59.7952 15.5811 59.9764 15.551C60.1573 15.5149 60.2961 15.4883 60.3927 15.4702L61 18.3342C60.8068 18.3944 60.5352 18.464 60.1851 18.5423C59.8348 18.6266 59.4085 18.6775 58.9072 18.6955C57.9771 18.7317 57.162 18.608 56.4614 18.3249C55.7668 18.0417 55.2264 17.6021 54.8399 17.0057C54.4534 16.4093 54.2629 15.6561 54.2689 14.7465V7.51818H52.3661V4.62626H54.2689V1.30049H58.1286V4.62626Z" fill="#303030"/>
<path d="M3.92299 15.2797H11.878V18.5061H0V0H3.92299V15.2797Z" fill="#303030"/>
<path d="M50.1892 18.5061H46.2662V0H50.1892V18.5061Z" fill="#303030"/>
</svg>
