<svg width="65" height="82" viewBox="0 0 65 82" fill="none" xmlns="http://www.w3.org/2000/svg">
<path d="M7.12 0.640808C24.9975 -1.56876 36.5543 2.18091 42.6317 8.13007C43.1366 8.62431 43.6024 9.13405 44.0311 9.65546C46.232 9.90738 48.4446 10.46 50.5536 11.298C55.3625 13.2088 59.6727 16.6268 62.0741 21.4455C64.481 26.2754 64.9411 32.4541 62.1493 39.8146C59.8831 45.7892 55.022 49.5181 49.1093 52.1437C43.2068 54.7648 36.1782 56.3198 29.4969 57.8986C22.7819 59.4854 16.4323 61.0943 11.7577 63.8068C9.42915 65.158 7.53958 66.771 6.23132 68.7697C5.00791 70.6389 4.2769 72.8699 4.19031 75.5881L4.18152 76.1379V80.2932L6.50964 77.965C6.70489 77.7699 7.02144 77.7699 7.21667 77.965C7.4119 78.1603 7.41183 78.4768 7.21667 78.6721L4.03503 81.8537C3.83977 82.049 3.52327 82.049 3.328 81.8537L0.146362 78.6721C-0.0488271 78.4768 -0.0488756 78.1603 0.146362 77.965C0.341609 77.7699 0.658162 77.7699 0.853394 77.965L3.18152 80.2932V75.5002C3.18153 75.4562 3.18842 75.4139 3.1991 75.3732C3.31767 72.5662 4.09112 70.213 5.39441 68.2219C6.81114 66.0575 8.83439 64.3466 11.2557 62.9416C16.0811 60.1416 22.5818 58.5046 29.2665 56.925C35.9851 55.3374 42.9066 53.8051 48.704 51.2307C54.491 48.6607 59.08 45.0854 61.2137 39.4601C63.9217 32.321 63.4444 26.4367 61.1796 21.8918C58.9091 17.3357 54.8129 14.0659 50.1844 12.2267C48.4634 11.5429 46.6741 11.0601 44.8856 10.7814C48.7769 16.3569 48.6457 23.0916 45.0975 28.4142L45.0819 28.4377C43.8716 30.0514 41.7672 31.2932 39.4237 32.0099C37.0724 32.729 34.4126 32.941 32.0389 32.4289C29.6608 31.9157 27.5318 30.6643 26.3397 28.4318C25.1507 26.205 24.9473 23.101 26.203 18.9914C27.6393 14.291 31.3629 11.4073 35.8876 10.1857C37.9903 9.6181 40.2731 9.40591 42.5975 9.53436C42.3835 9.30211 42.1626 9.07111 41.9315 8.84491C36.159 3.19424 24.9652 -0.556367 7.24304 1.63397L7.18152 1.13788L7.12 0.640808ZM43.5106 10.6066C40.9519 10.3584 38.4297 10.5354 36.1473 11.1516C31.8756 12.305 28.4738 14.9843 27.16 19.2834C25.9501 23.2432 26.2011 26.05 27.2216 27.9611C28.239 29.8664 30.0743 30.9819 32.2499 31.4514C34.4301 31.9218 36.9147 31.7316 39.1307 31.0539C41.35 30.3752 43.2334 29.2274 44.2743 27.8449C47.741 22.6324 47.7258 15.9851 43.5106 10.6066Z" fill="#303030"/>
</svg>
